<?xml version="1.0" encoding="UTF-8" standalone="no"?>
<!-- Created with Inkscape (http://www.inkscape.org/) -->

<svg
   width="291.8454mm"
   height="199.96362mm"
   viewBox="0 0 291.8454 199.96362"
   version="1.1"
   id="svg1"
   xml:space="preserve"
   xmlns="http://www.w3.org/2000/svg"
   xmlns:svg="http://www.w3.org/2000/svg"><defs
     id="defs1" /><g
     id="layer1"
     style="display:inline"
     transform="translate(17.840828,-32.306636)"><path
       style="display:none;fill:#0080f1;fill-opacity:1"
       d="m 4.637691,244.67796 c -10.03288,-16.44083 -18.2543,-29.92459 -18.269822,-29.96391 -0.01552,-0.0393 3.495504,-0.0715 7.802281,-0.0715 h 7.830504 l 0.505309,0.8255 c 0.277921,0.45402 1.849406,3.01625 3.49219,5.69383 1.642785,2.67759 4.270781,7.00194 5.839992,9.60967 3.45455,5.74081 4.207606,6.97577 6.47935,10.62566 0.970954,1.55999 2.388096,3.86504 3.149205,5.12234 0.76111,1.2573 1.40401,2.27791 1.428668,2.26802 0.09497,-0.0381 10.390188,-16.9275 15.523626,-25.46669 2.992255,-4.97744 4.916142,-8.10463 5.211765,-8.47146 l 0.169333,-0.21013 7.885496,0.0228 7.885495,0.0228 -17.223882,28.10933 c -9.473136,15.46014 -17.728789,28.93437 -18.345897,29.94275 l -1.122014,1.83342 z m 58.000735,-0.0634 v -29.972 h 6.815667 6.815667 v 29.972 29.972 h -6.815667 -6.815667 z m 49.451364,29.87721 c -7.57656,-0.43343 -15.068402,-3.12955 -20.867026,-7.50951 -4.926692,-3.72135 -8.62066,-8.61595 -10.459209,-13.8587 -1.084464,-3.09243 -1.508846,-5.8841 -1.420808,-9.34638 0.07111,-2.79672 0.472239,-5.15322 1.291452,-7.58695 1.986413,-5.90127 6.3848,-11.35382 12.280404,-15.22367 5.48792,-3.60224 11.783907,-5.70626 18.694337,-6.24734 1.8394,-0.14402 6.29668,-0.0514 8.09482,0.16822 5.28548,0.64553 10.20617,2.23987 14.605,4.73212 1.21728,0.68967 3.53222,2.26678 4.699,3.2013 1.34914,1.08058 3.74773,3.45144 4.70707,4.65264 2.98578,3.73856 4.89052,7.62998 5.69814,11.64141 0.49834,2.47524 0.46512,1.19371 0.49422,19.06748 l 0.0267,16.40417 -18.31123,-0.0125 c -10.07118,-0.007 -18.86097,-0.0439 -19.53287,-0.0823 z m 23.86842,-21.51638 c -0.001,-8.18938 -0.0219,-9.90067 -0.12784,-10.64645 -0.78735,-5.54028 -4.6265,-10.50225 -10.33777,-13.36122 -2.55522,-1.27909 -5.05303,-2.01378 -7.99017,-2.35014 -1.69424,-0.19403 -5.06047,-0.13043 -6.64634,0.12558 -7.36284,1.18857 -13.204185,5.19282 -16.004449,10.97107 -1.073647,2.21543 -1.563881,4.35653 -1.563881,6.83027 0,4.47519 1.866386,8.70385 5.319566,12.05252 3.503924,3.39788 8.637084,5.60756 14.026764,6.03813 0.51224,0.0409 5.97006,0.0797 12.1285,0.0862 l 11.19717,0.0118 z m 50.42055,21.55188 c -13.45218,-0.5929 -25.54002,-7.93548 -30.77591,-18.69438 -2.53232,-5.2035 -3.24702,-11.16121 -2.02446,-16.87591 1.4881,-6.95595 5.97814,-13.23928 12.69204,-17.76116 1.50947,-1.01664 2.49292,-1.58689 4.20962,-2.44093 4.14651,-2.06283 8.4968,-3.33974 13.31638,-3.90867 1.8052,-0.2131 6.25624,-0.25632 8.28815,-0.0805 4.70668,0.40732 8.62089,1.41482 12.85787,3.30957 9.5443,4.26814 16.49515,12.39304 18.21354,21.28992 0.51254,2.6536 0.51801,2.86307 0.51824,19.83316 l 2e-4,15.38817 -18.3515,-0.0166 c -10.09332,-0.009 -18.6182,-0.0283 -18.94417,-0.0427 z m 23.3256,-21.12855 c -4e-5,-5.79075 -0.0334,-9.68807 -0.0879,-10.26583 -0.18876,-2.00183 -0.66655,-3.69023 -1.55734,-5.50333 -2.84112,-5.78273 -8.75009,-9.7886 -16.1347,-10.93821 -1.23877,-0.19285 -5.51072,-0.21781 -6.77333,-0.0396 -6.67104,0.94167 -12.19439,4.15768 -15.41544,8.97574 -3.90448,5.84034 -3.65192,13.0984 0.65473,18.81553 3.59438,4.77158 9.58914,7.75629 16.53871,8.2344 0.20955,0.0144 5.41972,0.0329 11.57817,0.041 l 11.19716,0.0148 z m 17.01807,5.35276 c 0,-17.20454 -0.005,-17.00256 0.47167,-19.38625 1.01106,-5.05689 3.58542,-9.80243 7.52642,-13.87409 5.44927,-5.62992 13.39871,-9.4655 21.84691,-10.54104 2.96114,-0.37699 7.51772,-0.40574 10.32934,-0.0652 4.73824,0.57393 8.87055,1.799 12.94553,3.83786 3.83381,1.91818 6.78145,4.06057 9.66047,7.02136 3.86767,3.97752 6.35065,8.57275 7.35999,13.62108 0.47659,2.38369 0.47167,2.18171 0.47167,19.38625 v 15.83508 h -6.98309 -6.9831 l -0.0289,-16.0655 c -0.0317,-17.58534 0.007,-16.24369 -0.51966,-18.16548 -1.32096,-4.82272 -5.20096,-9.17532 -10.30983,-11.56561 -3.35938,-1.57175 -6.68506,-2.29375 -10.56658,-2.29397 -4.05963,-2.4e-4 -7.5061,0.80208 -10.91836,2.54175 -4.91304,2.50482 -8.52501,6.6788 -9.78647,11.30919 -0.52798,1.93805 -0.4892,0.58491 -0.52087,18.17412 l -0.0289,16.0655 h -6.9831 -6.9831 z m 73.66,-14.13692 v -29.972 h 6.81567 6.81567 v 29.972 29.972 h -6.81567 -6.81567 z m 16.74067,29.86667 c 1.20367,-1.54388 22.81944,-29.64823 22.88954,-29.76048 0.0901,-0.14421 -1.16075,-1.80043 -11.38251,-15.07183 -6.31603,-8.2004 -11.4837,-14.93154 -11.4837,-14.95809 0,-0.0266 3.05816,-0.0483 6.79591,-0.0483 h 6.79591 l 8.08426,10.49829 c 4.44634,5.77406 8.12116,10.48616 8.16626,10.47133 0.0451,-0.0148 3.70404,-4.72953 8.13096,-10.47712 l 8.04895,-10.45017 6.83388,-0.0217 c 3.75863,-0.0119 6.83388,-0.003 6.83388,0.0207 0,0.0291 -21.67958,28.18342 -22.95737,29.81371 -0.0486,0.0619 3.89962,5.24796 11.40897,14.986 6.31576,8.19021 11.52158,14.93891 11.5685,14.99712 0.0681,0.0845 -1.29595,0.10584 -6.76616,0.10584 h -6.85146 l -8.11728,-10.541 c -4.4645,-5.79755 -8.13923,-10.53874 -8.16607,-10.53598 -0.0268,0.003 -3.68827,4.73669 -8.13652,10.51984 l -8.08771,10.5148 -6.84557,0.0217 c -5.48381,0.0174 -6.82908,5.2e-4 -6.76267,-0.0847 z m -90.52767,-75.045 c -5.16478,-0.59011 -10.05971,-2.96358 -13.88665,-6.73342 l -0.84798,-0.83533 -27.91664,-0.0213 -27.91664,-0.0213 7.42283,-15.59916 7.42283,-15.59916 4.3363,-3.00634 4.3363,-3.00633 h 20.53529 20.53528 l 0.34066,-0.40401 c 0.43626,-0.51737 1.94756,-1.86906 2.92909,-2.61975 3.35364,-2.5649 7.20126,-4.09384 11.59933,-4.60924 1.43398,-0.16804 4.24393,-0.12727 5.67267,0.0823 4.23152,0.62072 8.11348,2.27917 11.34618,4.84729 0.98318,0.78106 2.83687,2.61731 3.60587,3.57195 4.4999,5.5862 6.19969,12.85832 4.63566,19.83245 -0.32795,1.46235 -0.51485,2.08153 -1.00948,3.34433 -1.71637,4.38194 -4.50006,7.90399 -8.58756,10.86536 -1.018,0.73753 -8.23713,5.71666 -9.10167,6.27754 -3.12434,2.02695 -6.91357,3.35544 -10.49867,3.68082 -1.30626,0.11855 -3.70451,0.0959 -4.953,-0.0467 z m 12.63804,-17.36071 0.44604,-0.0536 0.34699,-0.72885 c 0.87703,-1.84218 1.31495,-4.35004 1.08954,-6.23938 -0.47976,-4.02105 -2.76195,-7.42757 -6.22327,-9.28917 -1.96347,-1.05601 -4.30544,-1.54614 -6.57484,-1.376 l -0.81602,0.0612 -0.35127,0.76681 c -0.39004,0.85143 -0.68673,1.80594 -0.90856,2.92301 -0.19954,1.00486 -0.19815,3.07532 0.003,4.15712 0.78955,4.25042 3.7369,7.7181 7.769,9.14055 0.65954,0.23268 2.00174,0.55404 2.65689,0.63615 0.44779,0.0561 2.10183,0.0575 2.5627,0.002 z m -0.84997,-23.78744 c -0.0281,-0.0281 -0.10116,-0.0311 -0.16228,-0.007 -0.0675,0.027 -0.0475,0.0471 0.0512,0.0512 0.0892,0.004 0.13926,-0.0163 0.11112,-0.0445 z M 81.980288,102.7344 C 58.658444,53.711344 39.574646,13.536358 39.571847,13.456653 c -0.0034,-0.09808 1.376497,-1.103716 4.269627,-3.1115 L 48.11619,7.3785717 h 20.966692 20.966692 l 0.171384,0.402167 c 0.09426,0.221192 9.494623,22.8430653 20.889692,50.2708303 11.39507,27.427765 20.74287,49.913071 20.77288,49.967341 0.03,0.0543 8.91281,-21.220912 19.73956,-47.278182 l 19.68501,-47.376853 4.31603,-2.992652 4.31604,-2.9926513 h 20.94485 c 16.72132,0 20.93659,0.02134 20.90385,0.105834 -0.0226,0.05821 -19.12005,40.2107903 -42.43888,89.2279623 l -42.39787,89.122122 -4.34666,3.01637 -4.34667,3.01637 h -1.93757 -1.93758 z M 241.7931,125.82101 c -5.50086,-0.68738 -10.2432,-3.01843 -14.09501,-6.92826 l -0.67535,-0.68552 h -17.98155 c -14.35276,0 -17.97247,-0.0213 -17.93659,-0.10583 0.0973,-0.22905 14.51863,-30.520839 14.67032,-30.814772 0.13399,-0.259621 0.90878,-0.831669 4.50098,-3.323166 l 4.33913,-3.009561 h 10.59291 10.59291 l 0.53943,-0.582632 c 1.99407,-2.153781 5.22998,-4.329973 8.16215,-5.489156 4.37108,-1.728029 9.25459,-2.106095 13.83388,-1.070975 4.40399,0.995495 8.50143,3.313193 11.60866,6.566384 1.16157,1.216124 1.75865,1.96218 2.62962,3.285712 1.28231,1.948602 2.07623,3.574453 2.72869,5.587999 0.86113,2.657526 1.15261,4.526975 1.14849,7.365995 -0.004,2.86573 -0.33415,4.893872 -1.21917,7.493002 -1.20819,3.54827 -2.88565,6.2334 -5.58293,8.93668 -1.36949,1.37254 -2.39513,2.21469 -4.2769,3.51177 -0.46567,0.32098 -2.27542,1.5779 -4.02167,2.79316 -1.74625,1.21526 -3.65125,2.51696 -4.23333,2.89267 -4.50205,2.90589 -10.1475,4.22344 -15.32467,3.5765 z m 54.85798,-73.61266 c -5.08867,-0.555815 -10.28407,-3.087015 -13.87374,-6.759301 l -0.79877,-0.817146 h -27.9244 c -16.15334,0 -27.9244,-0.0316 -27.9244,-0.07498 0,-0.04124 3.32813,-7.074459 7.39586,-15.629386 l 7.39587,-15.554411 4.3093,-2.993825 4.3093,-2.9938253 20.52518,-0.0035 20.52519,-0.0035 1.06481,-1.040151 c 0.58565,-0.572083 1.36562,-1.283896 1.73327,-1.581806 1.74662,-1.415323 4.33705,-2.8790461 6.57055,-3.7126911 4.43492,-1.6553189 9.56118,-1.8791518 14.18167,-0.6192286 8.77999,2.3941419 15.31789,9.58643 16.887,18.57725 1.23637,7.084183 -0.94002,14.466379 -5.84442,19.823985 -0.67709,0.739668 -2.31122,2.206681 -3.22011,2.890816 -0.95522,0.719006 -8.90993,6.22236 -10.10847,6.993407 -3.76528,2.422277 -8.04912,3.641359 -12.7,3.614127 -0.8382,-0.0049 -1.96486,-0.05708 -2.50369,-0.11593 z M 309.4657,34.755779 c 0.30201,-0.04991 0.33735,-0.08966 0.62027,-0.697568 2.94825,-6.334916 -0.0979,-13.753842 -6.66186,-16.224923 -0.4389,-0.165233 -1.15996,-0.379395 -1.60234,-0.475917 -0.90309,-0.19704 -2.68461,-0.29608 -3.66809,-0.20392 l -0.63729,0.05972 -0.33747,0.776534 c -0.74998,1.725767 -1.02914,3.06177 -1.02914,4.925201 0,2.329883 0.53038,4.256469 1.70894,6.20763 1.46842,2.431044 3.83839,4.281487 6.62802,5.175086 0.4562,0.146133 1.15763,0.317 1.55874,0.379704 0.76784,0.120034 2.87601,0.168392 3.42022,0.07845 z m 10.44614,-12.920374 c -0.0235,-0.05821 -0.0427,-0.01058 -0.0427,0.105833 0,0.116417 0.0192,0.164042 0.0427,0.105833 0.0235,-0.05821 0.0235,-0.153458 0,-0.211666 z M 319.6596,20.23203 c -0.027,-0.06754 -0.0471,-0.04748 -0.0512,0.05115 -0.004,0.08925 0.0163,0.139259 0.0445,0.111125 0.0281,-0.02813 0.0311,-0.10116 0.007,-0.162278 z m -0.0847,-0.338667 c -0.027,-0.06754 -0.0471,-0.04748 -0.0512,0.05115 -0.004,0.08925 0.0163,0.139259 0.0445,0.111125 0.0281,-0.02813 0.0311,-0.101159 0.007,-0.162278 z m -1.07384,-2.693458 c -0.0498,-0.09313 -0.10967,-0.169333 -0.13296,-0.169333 -0.0233,0 -0.002,0.0762 0.0483,0.169333 0.0498,0.09313 0.10968,0.169333 0.13296,0.169333 0.0233,0 0.002,-0.0762 -0.0483,-0.169333 z m -0.254,-0.423333 c -0.0498,-0.09313 -0.10967,-0.169334 -0.13296,-0.169334 -0.0233,0 -0.002,0.0762 0.0483,0.169334 0.0498,0.09313 0.10968,0.169333 0.13296,0.169333 0.0233,0 0.002,-0.0762 -0.0483,-0.169333 z m -0.508,-0.793967 c 0,-0.01758 -0.0667,-0.08426 -0.14817,-0.148166 -0.13428,-0.105315 -0.13728,-0.10232 -0.032,0.03197 0.1106,0.141033 0.18013,0.185884 0.18013,0.1162 z m -0.50707,-0.644192 c -0.14701,-0.18562 -0.31152,-0.36482 -0.36556,-0.398221 -0.054,-0.0334 0.0486,0.11847 0.22805,0.337491 0.17947,0.219022 0.34397,0.398222 0.36556,0.398222 0.0216,0 -0.081,-0.151871 -0.22805,-0.337492 z m -18.28893,-0.04351 c 0.10937,-0.116417 0.1798,-0.211667 0.15652,-0.211667 -0.0233,0 -0.13182,0.09525 -0.24119,0.211667 -0.10936,0.116417 -0.1798,0.211667 -0.15651,0.211667 0.0233,0 0.13181,-0.09525 0.24118,-0.211667 z m 0.71967,-0.804333 c 0.18188,-0.186267 0.31165,-0.338667 0.28836,-0.338667 -0.0233,0 -0.19114,0.1524 -0.37303,0.338667 -0.18188,0.186266 -0.31165,0.338666 -0.28837,0.338666 0.0233,0 0.19115,-0.1524 0.37304,-0.338666 z m 16.7977,-0.02117 c -0.0203,-0.01164 -0.22664,-0.192593 -0.45861,-0.402114 l -0.42176,-0.380947 0.41823,0.442496 c 0.23003,0.243373 0.4364,0.424324 0.45861,0.402114 0.0222,-0.02221 0.0238,-0.04991 0.004,-0.06155 z m -16.11504,-0.592666 0.24867,-0.275167 -0.27517,0.248674 c -0.15134,0.13677 -0.27516,0.260595 -0.27516,0.275166 0,0.06541 0.0699,0.0078 0.30166,-0.248673 z m 0.50267,-0.402167 c 0.0843,-0.09313 0.1342,-0.169333 0.11091,-0.169333 -0.0233,0 -0.11129,0.0762 -0.19558,0.169333 -0.0843,0.09313 -0.13419,0.169333 -0.11091,0.169333 0.0233,0 0.1113,-0.0762 0.19558,-0.169333 z m 14.605,0.131278 c 0,-0.03934 -0.96041,-0.729189 -1.18533,-0.851415 -0.23566,-0.128055 -0.0239,0.04801 0.56114,0.466627 0.61158,0.437586 0.62419,0.44536 0.62419,0.384788 z m -13.40577,-0.912667 c 0.15536,-0.09167 0.28248,-0.185572 0.28248,-0.208681 0,-0.064 -0.78678,0.400801 -0.93134,0.550206 -0.091,0.09401 -0.057,0.08782 0.11969,-0.0218 0.13568,-0.08418 0.37381,-0.228058 0.52917,-0.319725 z m 11.28914,-0.446273 c -0.30268,-0.158464 -0.58843,-0.288117 -0.635,-0.288117 -0.0466,0 0.16299,0.129653 0.46567,0.288117 0.30268,0.158465 0.58843,0.288117 0.635,0.288117 0.0466,0 -0.16298,-0.129652 -0.46567,-0.288117 z m -9.99066,-0.211666 c 0.16298,-0.08923 0.25823,-0.162236 0.21166,-0.162236 -0.0466,0 -0.21801,0.07301 -0.381,0.162236 -0.16298,0.08923 -0.25823,0.162235 -0.21166,0.162235 0.0466,0 0.21801,-0.07301 0.381,-0.162235 z m 1.73566,-0.604068 c 0.11625,-0.05087 0.0764,-0.05725 -0.127,-0.02037 -0.16298,0.02955 -0.37253,0.08708 -0.46566,0.127835 -0.11625,0.05087 -0.0764,0.05725 0.127,0.02036 0.16298,-0.02955 0.37253,-0.08708 0.46566,-0.127834 z m 0.44274,-0.124418 c -0.0281,-0.02813 -0.10116,-0.03114 -0.16228,-0.0067 -0.0675,0.02703 -0.0475,0.04709 0.0512,0.05115 0.0892,0.0037 0.13925,-0.01633 0.11112,-0.04447 z m 2.30893,-0.184013 c 1.35476,-0.05019 1.52187,-0.06876 0.93133,-0.103501 -0.8418,-0.04952 -2.35128,0.03676 -2.83633,0.162126 -0.30691,0.07932 -0.31088,0.08354 -0.0423,0.04503 0.16298,-0.02337 1.03928,-0.07002 1.94733,-0.10366 z m 2.4765,0.09443 c -0.0582,-0.02349 -0.15346,-0.02349 -0.21167,0 -0.0582,0.02349 -0.0106,0.0427 0.10584,0.0427 0.11641,0 0.16404,-0.01922 0.10583,-0.0427 z m -0.42172,-0.08413 c -0.0573,-0.02319 -0.17162,-0.0246 -0.254,-0.0031 -0.0824,0.02147 -0.0355,0.04044 0.10422,0.04217 0.1397,0.0017 0.2071,-0.01584 0.14978,-0.03903 z"
       id="path4" /><path
       style="display:none;fill:#767676;fill-opacity:1"
       d="m 226.63777,199.43881 c -2.91157,-0.33171 -6.12315,-1.36103 -8.63005,-2.76595 -2.02158,-1.13293 -3.97716,-2.62151 -5.32516,-4.05348 l -0.7078,-0.7519 -27.96807,-0.0213 -27.96807,-0.0213 7.42353,-15.60208 7.42354,-15.60208 3.3862,-2.34859 c 1.86242,-1.29172 3.81324,-2.6445 4.33516,-3.00617 l 0.94896,-0.65758 -0.16227,0.36259 c -0.0892,0.19942 -3.41756,7.20153 -7.39624,15.56025 l -7.23397,15.19767 27.93039,0.0423 27.93039,0.0423 0.52261,0.57905 c 0.28744,0.31847 0.98324,0.97722 1.54623,1.46388 5.36256,4.63553 12.52922,6.59448 19.48095,5.32495 2.62572,-0.47951 5.00976,-1.36049 7.57767,-2.80022 0.30268,-0.1697 0.51223,-0.27107 0.46566,-0.22525 -0.15777,0.15521 -7.27508,5.06293 -8.21266,5.66301 -3.21446,2.05734 -6.84465,3.32884 -10.45634,3.66241 -1.27515,0.11777 -3.68672,0.0969 -4.91066,-0.0426 z M 81.988354,102.7344 C 58.664863,53.711344 39.578575,13.53827 39.574382,13.460902 c -0.0051,-0.09369 1.40622,-1.122159 4.22571,-3.079447 2.328334,-1.6163283 4.271434,-2.9521493 4.318,-2.9684903 0.04657,-0.01634 19.172767,40.1068573 42.502668,89.1626633 l 42.418,89.192382 1.92617,0.002 c 1.05939,8.8e-4 1.92416,0.0302 1.9217,0.0651 -0.002,0.0349 -1.94943,1.40652 -4.32662,3.048 l -4.32216,2.9845 h -1.92157 -1.92158 z M 239.7611,181.96574 c 0,-0.0474 0.1504,-0.41164 0.33422,-0.80952 0.6155,-1.33225 0.95127,-2.7445 1.06778,-4.49113 0.131,-1.96382 -0.54416,-4.64269 -1.62294,-6.43938 -1.75373,-2.9208 -4.50763,-4.90733 -7.82239,-5.64266 -0.66368,-0.14723 -1.10161,-0.17946 -2.50427,-0.18429 l -1.69993,-0.006 0.47226,-0.74787 c 0.45202,-0.71581 1.80135,-2.18834 2.45681,-2.68113 0.15485,-0.11642 0.34317,-0.27151 0.4185,-0.34465 0.0753,-0.0731 0.32746,-0.2421 0.56029,-0.37546 0.23284,-0.13337 0.46424,-0.28308 0.51423,-0.33269 0.1318,-0.1308 0.58672,-0.34996 1.26377,-0.60882 0.32597,-0.12463 0.61598,-0.2622 0.64447,-0.30572 0.0285,-0.0435 0.0761,-0.0759 0.10583,-0.0719 0.0297,0.004 0.0636,0.004 0.0752,7.5e-4 0.0116,-0.004 0.0974,-0.0205 0.1905,-0.0376 0.35839,-0.0659 0.93552,-0.2394 1.0253,-0.30823 0.1759,-0.13487 1.93498,-0.30534 2.86937,-0.27807 0.9343,0.0273 2.67782,0.2518 2.92722,0.37696 0.0733,0.0368 0.42079,0.14755 0.77228,0.24618 0.75258,0.21117 2.02265,0.84005 2.78579,1.3794 0.29812,0.2107 0.58546,0.39773 0.63854,0.41563 0.17424,0.0588 1.64925,1.45775 1.77025,1.67899 0.065,0.11893 0.27473,0.38768 0.46598,0.59723 0.19126,0.20955 0.42419,0.54098 0.51764,0.73652 0.0934,0.19554 0.22376,0.40023 0.2896,0.45487 0.0658,0.0546 0.1197,0.13642 0.1197,0.18174 0,0.0453 0.0712,0.18352 0.15822,0.30713 0.087,0.12361 0.18682,0.31667 0.22175,0.42903 0.0349,0.11236 0.12335,0.34096 0.19647,0.508 0.0731,0.16704 0.1366,0.32276 0.14108,0.34604 0.004,0.0233 0.053,0.12297 0.10791,0.22153 0.0549,0.0985 0.16164,0.4788 0.23728,0.84498 0.0756,0.36619 0.17199,0.73019 0.21411,0.80889 0.22004,0.41117 0.24151,3.65504 0.0296,4.46874 -0.0666,0.25563 -0.12129,0.58059 -0.12158,0.72215 -2.9e-4,0.14156 -0.0554,0.36259 -0.12248,0.49118 -0.0671,0.12859 -0.21562,0.51266 -0.33009,0.85349 -0.2844,0.84675 -0.90755,2.06478 -1.42951,2.79417 -0.45524,0.63616 -1.90614,2.16527 -2.05866,2.16965 -0.0489,0.001 -0.29657,0.18653 -0.55034,0.41138 -0.25377,0.22486 -0.69,0.52429 -0.9694,0.6654 -0.2794,0.14111 -0.65539,0.35664 -0.83553,0.47896 -0.18015,0.12232 -0.35849,0.20327 -0.39632,0.17989 -0.0378,-0.0234 -0.0927,-0.004 -0.12196,0.0435 -0.0292,0.0473 -0.11207,0.0861 -0.18405,0.0861 -0.072,0 -0.32246,0.0962 -0.55661,0.21383 -0.44384,0.22293 -0.92285,0.3538 -1.57629,0.43065 -0.21192,0.0249 -0.45378,0.082 -0.53744,0.12673 -0.10004,0.0535 -0.15213,0.0519 -0.15213,-0.005 z m 2.07433,-56.14102 c -3.12757,-0.37358 -5.88949,-1.25375 -8.636,-2.75211 -1.91022,-1.04213 -3.55405,-2.28466 -5.33525,-4.0328 l -0.84791,-0.83218 -17.96402,-0.0214 -17.96401,-0.0214 7.42426,-15.59929 7.42427,-15.599291 4.27292,-2.959565 c 2.3501,-1.627761 4.28541,-2.947073 4.30068,-2.931806 0.0153,0.01527 -3.28867,7.002376 -7.34209,15.52691 -4.05342,8.524532 -7.36985,15.520502 -7.36985,15.546592 0,0.0261 8.08757,0.0474 17.97237,0.0474 h 17.97237 l 0.7178,0.72936 c 4.4252,4.49648 10.31333,6.97477 16.63513,7.00163 3.10334,0.0132 5.77076,-0.49189 8.63724,-1.63548 1.09467,-0.43673 2.95564,-1.33523 3.36426,-1.62432 0.12806,-0.0906 0.23283,-0.14689 0.23283,-0.12509 0,0.0499 -6.54883,4.60757 -7.91355,5.5075 -4.61502,3.04323 -10.25973,4.41089 -15.58145,3.77522 z M 133.46765,111.77649 c -0.97969,-2.36211 -1.48876,-3.69006 -1.45246,-3.78884 0.0307,-0.0836 8.88421,-21.406066 19.67439,-47.383154 L 171.3081,13.373427 175.53423,10.4395 c 2.32437,-1.6136603 4.27543,-2.9635233 4.3357,-2.9996953 0.0603,-0.03617 -0.1003,0.440079 -0.35682,1.058334 C 164.90073,43.717664 135.07232,115.41323 135.03188,115.41323 c -0.0307,0 -0.73465,-1.63653 -1.56423,-3.63674 z m 163.1656,-59.574142 c -5.16463,-0.593572 -10.22343,-3.067749 -13.90205,-6.799277 l -0.76024,-0.771168 h -27.93047 c -26.56062,0 -27.92833,-0.0073 -27.88686,-0.148167 0.024,-0.08149 3.35964,-7.116002 7.41256,-15.632246 l 7.36895,-15.48408 4.30248,-2.986619 c 2.36636,-1.6426393 4.31203,-2.9774023 4.3237,-2.9661383 0.0117,0.01126 -3.2748,6.9514783 -7.30328,15.4226983 -4.02848,8.471221 -7.34578,15.468894 -7.37177,15.550386 -0.0449,0.140907 1.31899,0.148166 27.83655,0.148166 h 27.88379 l 0.84508,0.853089 c 6.63162,6.694485 16.53622,8.754278 25.28017,5.257344 0.94389,-0.377488 1.58314,-0.686407 2.95457,-1.427796 0.59575,-0.322058 0.27559,-0.09068 -3.47133,2.508698 -4.30655,2.987613 -4.92817,3.390892 -6.3131,4.095638 -2.58316,1.314491 -5.1104,2.057875 -8.12257,2.389243 -1.35164,0.148694 -3.80797,0.14403 -5.14618,-0.0098 z m 13.45377,-18.126734 c 0.73024,-1.571317 1.13395,-3.352251 1.1312,-4.990146 -0.009,-5.155285 -3.12592,-9.577947 -7.98237,-11.325193 -1.31924,-0.474631 -2.16973,-0.602703 -4.00241,-0.602703 h -1.61465 l 0.40692,-0.640877 c 1.7826,-2.807466 5.09708,-4.912962 8.38252,-5.324922 4.24191,-0.53189 8.11955,1.007772 10.85988,4.312042 2.96278,3.572498 3.479,8.928307 1.25633,13.034574 -0.77747,1.436324 -2.0993,2.984377 -3.33584,3.906725 -1.26815,0.945932 -3.03996,1.771884 -4.4345,2.067199 -0.37253,0.07889 -0.74425,0.161865 -0.82604,0.18439 -0.12201,0.0336 -0.0935,-0.0779 0.15896,-0.621089 z"
       id="path3" /><g
       id="g6"
       transform="translate(-57.365255,32.703557)"><path
         style="display:inline;fill:#0080f1;fill-opacity:1"
         d="m 226.46843,199.44244 c -2.65448,-0.29511 -5.97196,-1.35438 -8.29733,-2.64933 -2.04036,-1.13623 -4.09601,-2.68495 -5.62835,-4.24036 l -0.67535,-0.68552 h -27.92987 c -23.41466,0 -27.92279,-0.0185 -27.88602,-0.11432 0.21639,-0.5639 14.76313,-31.03466 14.86623,-31.13999 0.075,-0.0766 2.03936,-1.45774 4.36526,-3.06916 l 4.22891,-2.92986 h 20.51517 20.51517 l 0.60608,-0.63805 c 3.25903,-3.4309 8.00055,-5.9696 12.64377,-6.7697 5.07966,-0.8753 9.94673,-0.19437 14.48234,2.02618 3.69859,1.81075 6.8116,4.52055 9.05166,7.87923 3.7877,5.6792 4.93796,12.37313 3.26491,19.0001 -1.21323,4.80561 -4.27138,9.45136 -8.25691,12.54336 -1.02675,0.79656 -8.93591,6.29638 -10.414,7.24161 -3.07233,1.96475 -6.72942,3.25486 -10.17725,3.59022 -1.14382,0.11126 -4.09792,0.0864 -5.27442,-0.0444 z m 12.62961,-17.36641 0.56461,-0.0533 0.35944,-0.77157 c 0.72395,-1.55404 1.08214,-3.1712 1.10119,-4.97167 0.0407,-3.84113 -1.76806,-7.36242 -5.00595,-9.7458 -2.02323,-1.48929 -4.9266,-2.30801 -7.59374,-2.14136 l -0.97371,0.0608 -0.36616,0.77421 c -0.95922,2.02824 -1.31867,4.67632 -0.94,6.92505 0.62121,3.68903 2.98991,6.91808 6.32071,8.61651 2.09058,1.06602 4.33415,1.51487 6.53361,1.30712 z m 2.56806,-56.25235 c -3.08455,-0.40395 -5.64344,-1.20931 -8.24671,-2.5955 -1.8622,-0.99158 -4.0468,-2.63436 -5.59442,-4.20692 l -0.7178,-0.72936 h -18.0147 c -14.35772,0 -18.01379,-0.0215 -18.0102,-0.10583 0.002,-0.0582 3.3304,-7.09719 7.39539,-15.64217 l 7.3909,-15.536333 4.3521,-3.025644 4.35211,-3.025645 10.57518,-0.0012 10.57519,-0.0012 1.15172,-1.121834 c 1.89713,-1.847889 3.69057,-3.102115 6.14591,-4.298069 3.28512,-1.60013 6.32179,-2.285675 10.11714,-2.283995 3.91596,0.0017 7.1624,0.761962 10.4985,2.458464 3.75334,1.908682 6.67222,4.480683 8.89346,7.836579 2.07094,3.128808 3.19794,6.082107 3.77683,9.897195 0.1179,0.77702 0.15416,1.51385 0.15416,3.13266 0,1.61881 -0.0363,2.35564 -0.15416,3.13267 -0.44991,2.965032 -1.19951,5.307902 -2.47385,7.731912 -1.6958,3.22573 -3.87574,5.76583 -6.84749,7.97881 -1.26633,0.943 -8.56041,6.00369 -9.82526,6.81684 -4.6114,2.9646 -10.26307,4.27358 -15.494,3.58855 z m 56.896,-73.499833 c -1.92258,-0.06251 -2.62301,-0.140281 -4.064,-0.451251 -2.90895,-0.627759 -5.78952,-1.856632 -8.255,-3.521639 -1.18248,-0.798562 -2.86921,-2.193883 -3.71279,-3.071342 l -0.62246,-0.647459 -27.92516,-0.02129 -27.92516,-0.02129 7.42328,-15.61161 7.42329,-15.61161 4.318,-2.995384 4.318,-2.9953833 20.49414,0.0018 20.49414,0.0018 1.0112,-0.984734 c 4.39371,-4.278758 9.80437,-6.6029318 15.78552,-6.7807518 4.90843,-0.1459277 9.66118,1.2142617 13.67367,3.9132608 6.55712,4.410647 10.37109,11.5561133 10.37109,19.4302123 0,2.182002 -0.1994,3.757033 -0.75448,5.959512 -0.77688,3.082538 -2.44031,6.353126 -4.51281,8.872956 -1.00212,1.21841 -2.98731,3.109662 -4.18401,3.986026 -1.25406,0.918362 -8.53814,5.957257 -9.85213,6.815379 -4.05297,2.64688 -8.56266,3.893404 -13.50433,3.732736 z m 10.69216,-17.56707 0.51466,-0.05379 0.37855,-0.856373 c 0.95049,-2.150232 1.25218,-4.169498 0.95019,-6.359707 -0.86782,-6.293921 -6.32068,-10.760676 -12.61272,-10.33181 l -0.9025,0.06151 -0.26082,0.516688 c -0.78945,1.563887 -1.22089,3.667175 -1.14971,5.604941 0.0844,2.297655 0.69706,4.216044 1.98313,6.209613 0.6651,1.030982 2.19697,2.546558 3.30242,3.267287 2.37706,1.549789 5.08763,2.224803 7.7968,1.941639 z M 306.4996,11.132499 c -0.0582,-0.02349 -0.15346,-0.02349 -0.21167,0 -0.0582,0.02349 -0.0106,0.04271 0.10584,0.04271 0.11641,0 0.16404,-0.01922 0.10583,-0.04271 z m 3.34257,0.0049 c -0.0281,-0.02813 -0.10116,-0.03114 -0.16228,-0.0067 -0.0675,0.02703 -0.0475,0.04709 0.0512,0.05115 0.0893,0.0037 0.13925,-0.01634 0.11112,-0.04447 z m -2.66362,-0.08905 c -0.0573,-0.02319 -0.17163,-0.0246 -0.254,-0.0031 -0.0824,0.02147 -0.0355,0.04044 0.10422,0.04217 0.1397,0.0017 0.2071,-0.01584 0.14978,-0.03903 z m 1.64762,0.0044 c -0.0281,-0.02813 -0.10116,-0.03114 -0.16228,-0.0067 -0.0675,0.02703 -0.0475,0.04709 0.0512,0.05115 0.0892,0.0037 0.13925,-0.01633 0.11112,-0.04447 z"
         id="path6" /><path
         style="display:inline;fill:#807f7f;fill-opacity:1"
         d="m 124.00011,191.08406 c -0.2041,-0.43074 -19.29462,-40.56116 -42.423384,-89.17872 -23.128765,-48.617558 -42.0523,-88.437154 -42.0523,-88.487994 0,-0.05084 1.929136,-1.430438 4.286969,-3.065773 l 4.28697,-2.9733363 20.995878,0.02133 20.995878,0.02133 20.843759,50.1649963 c 11.46407,27.590748 20.8729,50.241197 20.90851,50.334327 0.0541,0.14149 0.0763,0.14845 0.1348,0.0423 0.0385,-0.0699 8.82121,-21.196302 19.5171,-46.947667 10.69589,-25.751365 19.53366,-47.01338 19.63949,-47.248922 0.18888,-0.420403 0.27126,-0.482902 4.49173,-3.407833 l 4.29932,-2.9795753 H 200.874 c 19.91326,0 20.94683,0.0073 20.90164,0.148167 -0.0262,0.08149 -19.1141,40.2293643 -42.41767,89.2174883 l -42.37014,89.069332 -4.3452,3.02354 -4.3452,3.02353 -1.96312,0.003 -1.96311,0.003 z"
         id="path5" /><path
         style="display:inline;fill:#3f4140;fill-opacity:1"
         d="M 124.06846,191.16873 C 123.91317,190.83112 104.84203,150.7404 81.688142,102.07823 58.534255,53.416069 39.575185,13.544422 39.556877,13.474572 c -0.02292,-0.08743 1.30571,-1.054607 4.263964,-3.103974 2.363488,-1.6373363 4.323728,-2.9517863 4.356088,-2.9210003 0.03236,0.03079 19.143754,40.1752723 42.469762,89.2099703 l 42.410929,89.153992 1.88485,0.0423 1.88486,0.0423 -4.23928,2.94217 -4.23929,2.94216 h -1.99898 -1.99899 z m 9.40565,-79.40743 -1.51065,-3.65193 1.55058,-3.73524 c 0.85283,-2.05437 9.70661,-23.366729 19.67508,-47.360783 l 18.12449,-43.625553 3.42624,-2.378958 c 1.88444,-1.3084273 3.83107,-2.6595523 4.32585,-3.0024993 l 0.89961,-0.623542 -1.11636,2.6860553 c -0.61399,1.477331 -10.71424,25.784179 -22.44498,54.015218 -11.73075,28.23104 -21.34901,51.329162 -21.37392,51.329162 -0.0249,0 -0.72508,-1.64337 -1.55594,-3.65193 z"
         id="path2" /><path
         style="display:inline;fill:#00386c;fill-opacity:1"
         d="m 226.8071,199.43621 c -5.32484,-0.57713 -10.3359,-3.00256 -14.13766,-6.84285 l -0.80266,-0.8108 H 183.9886 c -15.33299,0 -27.87817,-0.0147 -27.87817,-0.0327 0,-0.0941 14.67286,-30.85842 14.79701,-31.02461 0.12808,-0.17144 8.49782,-6.03878 8.5478,-5.99215 0.0105,0.01 -3.29465,6.98098 -7.34484,15.49147 -4.05018,8.51049 -7.36397,15.5091 -7.36397,15.55247 0,0.0485 10.73318,0.0789 27.91547,0.0789 h 27.91547 l 0.51136,0.53176 c 1.96543,2.04382 4.17347,3.64313 6.69204,4.84714 1.5915,0.76083 2.35585,1.06037 3.64366,1.42791 2.27028,0.64795 4.03585,0.89474 6.41384,0.89653 4.00806,0.003 7.0683,-0.69855 10.53672,-2.41557 0.75685,-0.37467 1.34767,-0.65693 1.31293,-0.62723 -0.21546,0.18418 -7.08972,4.90167 -7.85249,5.38881 -4.41645,2.8205 -9.83569,4.09377 -15.02833,3.53096 z m 12.954,-17.51349 c 0,-0.0275 0.14714,-0.34435 0.32699,-0.7042 0.64542,-1.29146 1.11486,-3.40533 1.10966,-4.99685 -0.0182,-5.57075 -3.99075,-10.48632 -9.39532,-11.6256 -1.12776,-0.23773 -2.45142,-0.33324 -3.39355,-0.24486 -0.43613,0.0409 -0.79924,0.067 -0.8069,0.058 -0.0493,-0.0579 1.03578,-1.57763 1.48674,-2.08236 4.86736,-5.4476 13.49861,-5.26958 18.0684,0.37267 1.16813,1.44227 1.87273,2.86348 2.35066,4.74134 0.22102,0.86846 0.26524,1.22501 0.3045,2.45533 0.0401,1.25768 0.0226,1.55688 -0.13848,2.37067 -0.47241,2.38588 -1.56382,4.549 -3.08927,6.12279 -1.5582,1.60758 -3.86992,2.9332 -5.84976,3.35447 -0.37254,0.0793 -0.74401,0.1631 -0.8255,0.1863 -0.0815,0.0232 -0.14817,0.0197 -0.14817,-0.008 z m 3.97933,-55.98332 c -3.60122,-0.11361 -7.34202,-1.12804 -10.45633,-2.83555 -1.94114,-1.06428 -3.39512,-2.15767 -5.12614,-3.85485 l -1.06214,-1.04137 -17.9932,-0.0214 -17.9932,-0.0214 7.40792,-15.57867 7.40793,-15.578663 3.51941,-2.439475 c 1.93568,-1.341711 3.87106,-2.684393 4.30085,-2.983738 0.76055,-0.529712 0.77801,-0.536926 0.65337,-0.269858 -0.0704,0.150923 -3.39718,7.151454 -7.39276,15.556732 l -7.26468,15.282342 17.97283,0.0214 17.97282,0.0214 1.04468,1.03697 c 5.21384,5.17538 12.571,7.56744 19.96264,6.49052 2.30281,-0.33551 4.88829,-1.18164 7.10653,-2.32572 0.57908,-0.29866 1.01723,-0.5103 0.97367,-0.4703 -0.1266,0.11624 -6.69029,4.65932 -7.52986,5.21181 -2.4215,1.5935 -5.44801,2.81385 -8.39054,3.38323 -1.1205,0.21681 -3.55147,0.48747 -4.0978,0.45624 -0.16298,-0.009 -0.62018,-0.0272 -1.016,-0.0396 z M 296.7841,52.199607 c -5.25688,-0.594733 -10.13115,-2.943414 -13.9712,-6.732067 l -0.93253,-0.920049 -27.86489,-0.02129 -27.86489,-0.02129 7.30189,-15.366999 c 4.01604,-8.451849 7.37368,-15.475224 7.46142,-15.6075 0.13926,-0.209932 8.49968,-6.0912033 8.56699,-6.0265803 0.014,0.01344 -3.29117,6.9997703 -7.34483,15.5251673 -4.05366,8.525398 -7.37029,15.521166 -7.37029,15.546151 0,0.02499 12.56025,0.04543 27.91167,0.04543 h 27.91167 l 0.9385,0.912901 c 1.2068,1.173893 2.14771,1.955706 3.30916,2.749629 3.13991,2.146325 6.68281,3.468361 10.49866,3.917583 1.26663,0.149114 3.97339,0.169519 5.14172,0.03876 2.75544,-0.308386 5.32357,-1.046839 7.71221,-2.217607 0.75354,-0.369339 1.33197,-0.635804 1.28541,-0.592144 -0.15721,0.14739 -6.51141,4.530188 -7.45067,5.139078 -4.4925,2.912347 -9.99768,4.223922 -15.24,3.630837 z m 13.081,-17.588863 c 0,-0.01677 0.14624,-0.350146 0.32498,-0.740833 0.70647,-1.544203 1.02583,-3.018611 1.02821,-4.747047 0.002,-1.276809 -0.10084,-2.11616 -0.39078,-3.196963 -1.00508,-3.746635 -3.66719,-6.678146 -7.35474,-8.099037 -1.45518,-0.56071 -3.38594,-0.837112 -4.99534,-0.71512 -0.4191,0.03177 -0.77415,0.04927 -0.789,0.0389 -0.0148,-0.01037 0.17952,-0.336907 0.43194,-0.725632 1.49811,-2.307097 4.05132,-4.160196 6.74738,-4.897205 4.5987,-1.257124 9.45183,0.313406 12.39976,4.012709 3.2327,4.056644 3.49583,9.66449 0.65344,13.925748 -1.70204,2.551674 -4.20086,4.298875 -7.16685,5.01113 -0.66685,0.160139 -0.889,0.193461 -0.889,0.13335 z"
         id="path1" /></g></g></svg>
